<?xml version="1.0" standalone="no"?>
<!DOCTYPE svg PUBLIC "-//W3C//DTD SVG 20010904//EN"
 "http://www.w3.org/TR/2001/REC-SVG-20010904/DTD/svg10.dtd">
<svg version="1.0" xmlns="http://www.w3.org/2000/svg"
 width="1280.000000pt" height="1280.000000pt" viewBox="0 0 1280.000000 1280.000000"
 preserveAspectRatio="xMidYMid meet">

<g transform="translate(0.000000,1280.000000) scale(0.100000,-0.100000)"
fill="#000000" stroke="none">
<path d="M6035 9695 c-393 -46 -730 -145 -1090 -320 -889 -434 -1533 -1235
-1765 -2198 -65 -270 -90 -485 -90 -782 0 -384 49 -691 165 -1041 215 -646
630 -1216 1183 -1627 391 -290 901 -507 1387 -591 374 -65 803 -63 1170 4 378
69 764 214 1096 412 904 540 1489 1450 1604 2498 17 157 20 510 5 661 -93 938
-571 1785 -1327 2351 -472 353 -1058 578 -1662 638 -139 14 -540 11 -676 -5z
m535 -235 c441 -30 798 -125 1185 -315 613 -301 1093 -782 1395 -1400 307
-626 390 -1294 249 -1980 -128 -616 -467 -1207 -936 -1631 -938 -847 -2277
-1039 -3408 -489 -833 405 -1447 1185 -1648 2095 -186 840 -1 1745 501 2445
532 742 1378 1213 2287 1274 173 12 214 12 375 1z"/>
<path d="M6261 8441 c-6 -20 -38 -147 -72 -283 -49 -197 -65 -248 -78 -248 -9
0 -167 38 -351 84 -184 46 -336 83 -337 82 -5 -4 -94 -369 -91 -371 2 -1 37
-10 78 -20 203 -47 281 -81 312 -138 34 -64 35 -58 -173 -891 -121 -487 -206
-811 -217 -826 -10 -14 -35 -33 -56 -44 l-38 -19 -131 32 c-73 17 -142 34
-153 37 -15 4 -23 0 -27 -13 -2 -10 -41 -100 -85 -199 l-79 -182 346 -87 c190
-48 349 -89 352 -91 4 -2 -26 -134 -66 -293 l-72 -290 173 -42 c95 -24 175
-41 177 -39 2 3 35 129 72 280 37 151 70 278 74 282 6 6 258 -56 269 -67 3 -3
-26 -132 -64 -286 -39 -154 -68 -281 -65 -283 10 -7 343 -87 345 -84 1 2 32
129 70 283 38 154 70 283 72 286 2 3 56 -3 121 -14 90 -15 166 -20 323 -20
181 -1 214 2 285 21 138 38 219 84 316 181 74 74 93 101 137 191 68 138 102
258 109 385 12 226 -74 388 -278 525 -69 46 -86 61 -72 66 177 56 292 151 358
296 91 199 90 432 -4 593 -87 150 -272 284 -531 385 -47 18 -89 36 -93 40 -5
4 21 126 56 271 36 145 67 273 69 284 3 18 -14 24 -166 62 -94 23 -172 41
-174 38 -2 -2 -35 -126 -72 -275 -37 -149 -70 -273 -71 -274 -5 -4 -266 58
-273 64 -2 3 26 129 64 280 46 183 65 277 58 281 -9 6 -160 45 -305 79 -31 8
-33 6 -42 -29z m252 -1057 c455 -104 649 -262 607 -495 -15 -81 -38 -125 -92
-176 -121 -111 -326 -120 -687 -32 -78 19 -130 37 -128 43 2 6 41 163 87 349
46 185 87 337 92 337 5 0 60 -12 121 -26z m-253 -1053 c430 -100 655 -220 733
-389 32 -70 30 -188 -5 -263 -47 -102 -135 -166 -264 -190 -86 -16 -327 -5
-454 21 -99 20 -330 77 -336 83 -5 5 189 767 195 767 3 0 62 -13 131 -29z"/>
</g>
</svg>
